# xmcd
#
# Track frame offsets: 
#        150
#        18272
#        35975
#        52375
#        71307
#        93040
#        111155
#        134942
#        155230
#        173920
#        201647
#
# Disc length: 3055 seconds
#
# Revision: 11
# Processed by: cddbd v1.5.2PL0 Copyright (c) Steve Scherf et al.
# Submitted via: ExactAudioCopy v1.1
#
DISCID=ab0bed0b
DTITLE=Madonna - The Complete Studio Album (1993-2008) [CD 02 - Like A
DTITLE=Virgin)
DYEAR=2012
DGENRE=Pop
TTITLE0=Material Girl
TTITLE1=Angel
TTITLE2=Like A Virgin
TTITLE3=Over And Over
TTITLE4=Love Don't Live Here Anymore
TTITLE5=Dress You Up
TTITLE6=Shoo-Bee-Doo
TTITLE7=Pretender
TTITLE8=Stay
TTITLE9=Like A Virgin (Extended Dance Remix)
TTITLE10=Material Girl (Extended Dance Remix)
EXTD=Digitally Remastered Edition Year:1984, 2001 YEAR: 1984
EXTT0=
EXTT1=
EXTT2=
EXTT3=
EXTT4=
EXTT5=
EXTT6=
EXTT7=
EXTT8=
EXTT9=
EXTT10=
PLAYORDER=
